<?xml version="1.0" encoding="iso-8859-1"?>
<!-- Generator: Adobe Illustrator 17.1.0, SVG Export Plug-In . SVG Version: 6.00 Build 0)  -->
<!DOCTYPE svg PUBLIC "-//W3C//DTD SVG 1.1//EN" "http://www.w3.org/Graphics/SVG/1.1/DTD/svg11.dtd">
<svg version="1.1" id="Capa_1" xmlns="http://www.w3.org/2000/svg" xmlns:xlink="http://www.w3.org/1999/xlink" x="0px" y="0px"
	 viewBox="0 0 212.298 212.298" style="enable-background:new 0 0 212.298 212.298;" xml:space="preserve">
<path fill="white" d="M207.298,118.602h-4.162V66.09c0-2.762-2.239-5-5-5h-3.987V46.395c0-2.762-2.239-5-5-5h-6.013V26.701c0-2.762-2.239-5-5-5
	H34.162c-2.761,0-5,2.238-5,5v14.694h-6.013c-2.761,0-5,2.238-5,5V61.09h-3.987c-2.761,0-5,2.238-5,5v52.512H5c-2.761,0-5,2.238-5,5
	v61.995c0,2.762,2.239,5,5,5h202.298c2.761,0,5-2.238,5-5v-61.995C212.298,120.84,210.059,118.602,207.298,118.602z M39.162,31.701
	h133.974v9.694H39.162V31.701z M28.149,51.395h156v9.695h-156V51.395z M19.162,71.09h173.974v47.512h-38.422
	c-2.402,0-4.464,1.708-4.912,4.067l-4.228,22.259H66.725l-4.228-22.259c-0.448-2.359-2.51-4.067-4.912-4.067H19.162V71.09z"/>
<g>
</g>
<g>
</g>
<g>
</g>
<g>
</g>
<g>
</g>
<g>
</g>
<g>
</g>
<g>
</g>
<g>
</g>
<g>
</g>
<g>
</g>
<g>
</g>
<g>
</g>
<g>
</g>
<g>
</g>
</svg>
